<mxfile host="app.diagrams.net" modified="2023-04-06T04:41:40.228Z" agent="Mozilla/5.0 (Windows NT 10.0; WOW64) AppleWebKit/537.36 (KHTML, like Gecko) Chrome/102.0.0.0 Safari/537.36" version="21.1.4" etag="YdkB7RMX28ZDa8ePreYS" type="github">
  <diagram name="第 1 页" id="RNIS6AakxRGmmKSufFS9">
    <mxGraphModel>
      <root>
        <mxCell id="0" />
        <mxCell id="1" parent="0" />
      </root>
    </mxGraphModel>
  </diagram>
</mxfile>
